<svg xmlns="http://www.w3.org/2000/svg" aria-hidden="true" style="position:absolute;width:0;height:0;overflow:hidden">
  <defs>
    <symbol id="iconadd-friend" viewBox="0 0 30 32">
      <path fill="#fff" d="M21.096 20.303a6.687 6.687 0 0 1 3.122-.765h.004c.115 0 .169-.135.084-.21a14.33 14.33 0 0 0-3.977-2.468c-.015-.008-.031-.011-.046-.019 2.381-1.691 3.931-4.44 3.931-7.541 0-5.138-4.249-9.3-9.491-9.3S5.235 4.162 5.235 9.3c0 3.101 1.549 5.85 3.935 7.541-.015.008-.031.011-.046.019a14.31 14.31 0 0 0-4.575 3.023 13.987 13.987 0 0 0-3.083 4.481 13.728 13.728 0 0 0-1.127 5.179.292.292 0 0 0 .087.217.32.32 0 0 0 .219.091h2.297a.306.306 0 0 0 .307-.292c.077-2.895 1.262-5.606 3.359-7.661 2.167-2.126 5.051-3.296 8.118-3.296 2.174 0 4.261.589 6.059 1.691a.318.318 0 0 0 .311.011zm-6.37-4.553a6.62 6.62 0 0 1-4.656-1.89c-.613-.598-1.099-1.309-1.43-2.092s-.501-1.622-.499-2.468c0-1.721.686-3.341 1.929-4.56s2.895-1.89 4.656-1.89c1.76 0 3.409.671 4.656 1.89.613.598 1.099 1.309 1.43 2.092s.5 1.622.499 2.468a6.352 6.352 0 0 1-1.929 4.56 6.616 6.616 0 0 1-4.656 1.89zm14.105 8.925H25.61v-3.15c0-.165-.138-.3-.307-.3h-2.148a.304.304 0 0 0-.307.3v3.15h-3.221a.304.304 0 0 0-.307.3v2.1c0 .165.138.3.307.3h3.221v3.15c0 .165.138.3.307.3h2.148a.304.304 0 0 0 .307-.3v-3.15h3.221a.304.304 0 0 0 .307-.3v-2.1c0-.165-.138-.3-.307-.3z" style="fill:var(--color1, #fff)"/>
    </symbol>
    <symbol id="iconcall" viewBox="0 0 26 32">
      <path fill="#fff" d="M11.812 31.429c.498-.012.975-.21 1.348-.56s.617-.828.69-1.35H9.694c.075.536.331 1.026.72 1.377s.886.541 1.398.533z" style="fill:var(--color1, #fff)"/>
      <path fill="none" stroke="#fff" stroke-width="1.185" d="M11.812 31.429c.498-.012.975-.21 1.348-.56s.617-.828.69-1.35H9.694c.075.536.331 1.026.72 1.377s.886.541 1.398.533z" style="stroke:var(--color1, #fff)"/>
      <path fill="#fff" d="M23.433 21.825a11.67 11.67 0 0 1-1.997-2.381 10.445 10.445 0 0 1-1.074-3.909V11.52a9.094 9.094 0 0 0-.127-1.455 5.828 5.828 0 0 1-1.782-.683c.211.695.318 1.418.318 2.146v4.015a11.78 11.78 0 0 0 1.312 4.755 13.075 13.075 0 0 0 1.941 2.438H1.653a13.108 13.108 0 0 0 1.941-2.438 11.764 11.764 0 0 0 1.312-4.755V11.52c-.004-.941.173-1.873.522-2.743s.862-1.662 1.511-2.329c.649-.667 1.42-1.197 2.269-1.56s1.761-.55 2.681-.552a6.745 6.745 0 0 1 3.786 1.17 6.213 6.213 0 0 1-.207-1.422v-.512a8.308 8.308 0 0 0-2.641-.813V1.735c0-.288-.112-.564-.311-.767S12.047.65 11.765.65c-.282 0-.552.114-.751.318s-.311.479-.311.767V2.8c-2.056.296-3.937 1.342-5.297 2.945S3.3 9.399 3.305 11.52v4.015a10.445 10.445 0 0 1-1.074 3.909 11.63 11.63 0 0 1-1.965 2.381.834.834 0 0 0-.27.609v1.105c0 .215.084.422.233.575s.351.238.562.238h22.113c.211 0 .413-.086.562-.238s.233-.359.233-.575v-1.105a.818.818 0 0 0-.27-.609z" style="fill:var(--color1, #fff)"/>
      <path d="M21.294 11.931c2.182 0 3.951-1.875 3.951-4.188s-1.769-4.188-3.951-4.188c-2.182 0-3.951 1.875-3.951 4.188s1.769 4.188 3.951 4.188z" style="fill:var(--color2, #000)"/>
      <path fill="none" stroke="#fff" stroke-width="1.185" d="M21.294 11.931c2.182 0 3.951-1.875 3.951-4.188s-1.769-4.188-3.951-4.188c-2.182 0-3.951 1.875-3.951 4.188s1.769 4.188 3.951 4.188z" style="stroke:var(--color1, #fff)"/>
    </symbol>
    <symbol id="iconsearch" viewBox="0 0 32 32">
      <path fill="none" stroke="#fff" stroke-linecap="round" stroke-linejoin="round" stroke-width="3.2" d="M30.4 30.4v0zM24 12.8a11.183 11.183 0 0 1-3.28 7.919 11.21 11.21 0 0 1-7.919 3.28A11.203 11.203 0 0 1 1.6 12.8 11.196 11.196 0 0 1 12.8 1.6 11.196 11.196 0 0 1 24 12.8z" style="stroke:var(--color1, #fff)"/>
    </symbol>
  </defs>
</svg>
